<svg xmlns="http://www.w3.org/2000/svg" viewBox="0 0 197.1 197.1"><style>.st0{fill:#faeaea}.st1{fill:#e5f7fd}.st2{clip-path:url(#SVGID_2_)}.st3{fill:#ebf0f2}.st4{fill:#9ab5be}.st5{fill:#a916a1;stroke:#FFF;stroke-miterlimit:10}.st6{fill:#03465c}.st7{clip-path:url(#SVGID_4_)}.st8{opacity:.75;fill:#03465c}.st9{opacity:.5;fill:#03465c}.st10{opacity:.25}.st11{clip-path:url(#SVGID_6_)}.st12{fill:#03465c;stroke:#FFF;stroke-miterlimit:10}.st13{clip-path:url(#SVGID_8_)}.st14{fill:#FFF;stroke:#03465c;stroke-miterlimit:10}.st15{opacity:.5}.st16{fill:none;stroke:#FFF;stroke-miterlimit:10}.st17{fill:#a9a827}.st17,.st18{stroke:#FFF;stroke-miterlimit:10}.st18{fill:#f15a24}.st19{clip-path:url(#SVGID_10_)}.st20{clip-path:url(#SVGID_12_)}.st21{clip-path:url(#SVGID_14_)}.st22{fill:#FFF}.st23{opacity:.25;fill:#03465c;stroke:#FFF;stroke-miterlimit:10}.st24{clip-path:url(#SVGID_16_)}.st25{clip-path:url(#SVGID_18_)}.st26{clip-path:url(#SVGID_20_)}.st27{clip-path:url(#SVGID_22_)}.st28{clip-path:url(#SVGID_24_)}.st29{clip-path:url(#SVGID_26_)}.st30{clip-path:url(#SVGID_28_)}.st31{clip-path:url(#SVGID_30_)}.st32{clip-path:url(#SVGID_32_)}.st33{clip-path:url(#SVGID_34_)}.st34{clip-path:url(#SVGID_36_)}.st35{clip-path:url(#SVGID_38_)}.st36{clip-path:url(#SVGID_40_)}.st37{clip-path:url(#SVGID_42_)}.st38{clip-path:url(#SVGID_44_)}.st39{fill:#333}</style><g id="Layer_1"><path class="st22" d="M98.5 187.2L9.8 98.5 98.5 9.8l88.7 88.7-88.7 88.7zM11.2 98.5l87.3 87.3 87.3-87.3-87.3-87.3-87.3 87.3z"/><path class="st22" d="M98.5 19.6L19.6 98.5l78.9 78.9 78.9-78.9-78.9-78.9zm33.4 83.7h-28.6c-2.7 0-4.8-2.2-4.8-4.8 0-2.7 2.2-4.8 4.8-4.8h23.4c-2.3-13.5-14-23.8-28.2-23.8-15.8 0-28.6 12.8-28.6 28.6s12.8 28.6 28.6 28.6c2.7 0 4.8 2.2 4.8 4.8s-2.2 4.8-4.8 4.8c-21.1 0-38.2-17.1-38.2-38.2s17.1-38.2 38.2-38.2 38.2 17.1 38.2 38.2c.1 2.7-2.1 4.8-4.8 4.8zm-41.1-4.5c0 2.7-2.2 4.9-4.9 4.9s-4.9-2.2-4.9-4.9 2.2-4.9 4.9-4.9 4.9 2.2 4.9 4.9z"/></g></svg>